<mxfile host="app.diagrams.net" modified="2024-05-15T23:53:27.293Z" agent="Mozilla/5.0 (X11; CrOS x86_64 14816.131.5) AppleWebKit/537.36 (KHTML, like Gecko) Chrome/103.0.0.0 Safari/537.36" etag="m7rR8GNZ4EAl1DEVEwRe" version="24.4.2" type="github">
  <diagram id="C5RBs43oDa-KdzZeNtuy" name="Page-1">
    <mxGraphModel dx="-774" dy="476" grid="1" gridSize="10" guides="1" tooltips="1" connect="1" arrows="1" fold="1" page="1" pageScale="1" pageWidth="827" pageHeight="1169" math="0" shadow="0">
      <root>
        <mxCell id="WIyWlLk6GJQsqaUBKTNV-0" />
        <mxCell id="WIyWlLk6GJQsqaUBKTNV-1" parent="WIyWlLk6GJQsqaUBKTNV-0" />
        <mxCell id="ITCPPTDJUzS2EDGXZK1d-0" value="" style="rounded=0;html=1;jettySize=auto;orthogonalLoop=1;fontSize=11;endArrow=block;endFill=0;endSize=8;strokeWidth=1;shadow=0;labelBackgroundColor=none;edgeStyle=orthogonalEdgeStyle;" parent="WIyWlLk6GJQsqaUBKTNV-1" source="ITCPPTDJUzS2EDGXZK1d-2" target="ITCPPTDJUzS2EDGXZK1d-3" edge="1">
          <mxGeometry relative="1" as="geometry" />
        </mxCell>
        <mxCell id="ITCPPTDJUzS2EDGXZK1d-2" value="Ver Horario Agendado" style="rounded=1;whiteSpace=wrap;html=1;fontSize=12;glass=0;strokeWidth=1;shadow=0;" parent="WIyWlLk6GJQsqaUBKTNV-1" vertex="1">
          <mxGeometry x="1687.5" y="40" width="120" height="40" as="geometry" />
        </mxCell>
        <mxCell id="ITCPPTDJUzS2EDGXZK1d-3" value="Verifica se Cliente tem Horario agendado" style="rhombus;whiteSpace=wrap;html=1;shadow=0;fontFamily=Helvetica;fontSize=12;align=center;strokeWidth=1;spacing=6;spacingTop=-4;" parent="WIyWlLk6GJQsqaUBKTNV-1" vertex="1">
          <mxGeometry x="1670" y="110" width="155" height="150" as="geometry" />
        </mxCell>
        <mxCell id="ITCPPTDJUzS2EDGXZK1d-4" value="Sim" style="text;html=1;align=center;verticalAlign=middle;resizable=0;points=[];autosize=1;strokeColor=none;fillColor=none;" parent="WIyWlLk6GJQsqaUBKTNV-1" vertex="1">
          <mxGeometry x="1870" y="70" width="40" height="30" as="geometry" />
        </mxCell>
        <mxCell id="ITCPPTDJUzS2EDGXZK1d-5" value="" style="edgeStyle=orthogonalEdgeStyle;rounded=0;html=1;jettySize=auto;orthogonalLoop=1;fontSize=11;endArrow=block;endFill=0;endSize=8;strokeWidth=1;shadow=0;labelBackgroundColor=none;entryX=0;entryY=0.5;entryDx=0;entryDy=0;" parent="WIyWlLk6GJQsqaUBKTNV-1" edge="1">
          <mxGeometry y="10" relative="1" as="geometry">
            <mxPoint as="offset" />
            <mxPoint x="1825" y="185" as="sourcePoint" />
            <mxPoint x="1975" y="100" as="targetPoint" />
            <Array as="points">
              <mxPoint x="1875" y="185" />
              <mxPoint x="1875" y="100" />
            </Array>
          </mxGeometry>
        </mxCell>
        <mxCell id="ITCPPTDJUzS2EDGXZK1d-6" value="" style="edgeStyle=orthogonalEdgeStyle;rounded=0;html=1;jettySize=auto;orthogonalLoop=1;fontSize=11;endArrow=block;endFill=0;endSize=8;strokeWidth=1;shadow=0;labelBackgroundColor=none;entryX=0;entryY=0.5;entryDx=0;entryDy=0;" parent="WIyWlLk6GJQsqaUBKTNV-1" edge="1">
          <mxGeometry y="10" relative="1" as="geometry">
            <mxPoint as="offset" />
            <mxPoint x="1825" y="185" as="sourcePoint" />
            <mxPoint x="1975" y="270" as="targetPoint" />
            <Array as="points">
              <mxPoint x="1875" y="185" />
              <mxPoint x="1875" y="270" />
            </Array>
          </mxGeometry>
        </mxCell>
        <mxCell id="ITCPPTDJUzS2EDGXZK1d-7" value="Retorna mensagem de horario nao agendado e uma agenda de horarios disponiveis&amp;nbsp;" style="rounded=1;whiteSpace=wrap;html=1;fontSize=12;glass=0;strokeWidth=1;shadow=0;" parent="WIyWlLk6GJQsqaUBKTNV-1" vertex="1">
          <mxGeometry x="1975" y="230.63" width="120" height="78.75" as="geometry" />
        </mxCell>
        <mxCell id="ITCPPTDJUzS2EDGXZK1d-8" value="Retorna o horario agendado" style="rounded=1;whiteSpace=wrap;html=1;fontSize=12;glass=0;strokeWidth=1;shadow=0;" parent="WIyWlLk6GJQsqaUBKTNV-1" vertex="1">
          <mxGeometry x="1975" y="80" width="120" height="40" as="geometry" />
        </mxCell>
        <mxCell id="ITCPPTDJUzS2EDGXZK1d-9" value="NÃ£o" style="text;html=1;align=center;verticalAlign=middle;resizable=0;points=[];autosize=1;strokeColor=none;fillColor=none;" parent="WIyWlLk6GJQsqaUBKTNV-1" vertex="1">
          <mxGeometry x="1865" y="270" width="50" height="30" as="geometry" />
        </mxCell>
      </root>
    </mxGraphModel>
  </diagram>
</mxfile>
